<svg id="Layer_1" data-name="Layer 1" xmlns="http://www.w3.org/2000/svg" viewBox="0 0 1800 1800"><defs><style>.cls-1{fill:#194f8f;}.cls-2{fill:none;stroke:#3cd2ff;stroke-miterlimit:10;stroke-opacity:0.3;}</style></defs><title>bermuda-square</title><rect class="cls-1" width="1800" height="1800"/><rect class="cls-1" width="1800" height="1800"/><rect class="cls-2" x="22.5" y="22.5" width="1755" height="1755"/><rect class="cls-2" x="45" y="45" width="1710" height="1710"/><rect class="cls-2" x="67.5" y="67.5" width="1665" height="1665"/><rect class="cls-2" x="90" y="90" width="1620" height="1620"/><rect class="cls-2" x="112.5" y="112.5" width="1575" height="1575"/><rect class="cls-2" x="135" y="135" width="1530" height="1530"/><rect class="cls-2" x="157.5" y="157.5" width="1485" height="1485"/><rect class="cls-2" x="180" y="180" width="1440" height="1440"/><rect class="cls-2" x="202.5" y="202.5" width="1395" height="1395"/><rect class="cls-2" x="225" y="225" width="1350" height="1350"/><rect class="cls-2" x="247.5" y="247.5" width="1305" height="1305"/><rect class="cls-2" x="270" y="270" width="1260" height="1260"/><rect class="cls-2" x="292.5" y="292.5" width="1215" height="1215"/><rect class="cls-2" x="315" y="315" width="1170" height="1170"/><rect class="cls-2" x="337.5" y="337.5" width="1125" height="1125"/><rect class="cls-2" x="360" y="360" width="1080" height="1080"/><rect class="cls-2" x="382.5" y="382.5" width="1035" height="1035"/><rect class="cls-2" x="405" y="405" width="990" height="990"/><rect class="cls-2" x="427.5" y="427.5" width="945" height="945"/><rect class="cls-2" x="450" y="450" width="900" height="900"/><rect class="cls-2" x="472.5" y="472.5" width="855" height="855"/><rect class="cls-2" x="495" y="495" width="810" height="810"/><rect class="cls-2" x="517.5" y="517.5" width="765" height="765"/><rect class="cls-2" x="540" y="540" width="720" height="720"/><rect class="cls-2" x="562.5" y="562.5" width="675" height="675"/><rect class="cls-2" x="585" y="585" width="630" height="630"/><rect class="cls-2" x="607.5" y="607.5" width="585" height="585"/><rect class="cls-2" x="630" y="630" width="540" height="540"/><rect class="cls-2" x="652.5" y="652.5" width="495" height="495"/><rect class="cls-2" x="675" y="675" width="450" height="450"/><rect class="cls-2" x="697.5" y="697.5" width="405" height="405"/><rect class="cls-2" x="720" y="720" width="360" height="360"/><rect class="cls-2" x="742.5" y="742.5" width="315" height="315"/><rect class="cls-2" x="765" y="765" width="270" height="270"/><rect class="cls-2" x="787.5" y="787.5" width="225" height="225"/><rect class="cls-2" x="810" y="810" width="180" height="180"/><rect class="cls-2" x="832.5" y="832.5" width="135" height="135"/><rect class="cls-2" x="855" y="855" width="90" height="90"/><rect class="cls-2" x="877.5" y="877.5" width="45" height="45"/></svg>