<svg id="Capa_1" enable-background="new 0 0 512 512" height="512" viewBox="0 0 512 512" width="512" xmlns="http://www.w3.org/2000/svg"><g><path d="m37.678 101.318 63.64-63.64-30.356-30.356c-9.763-9.763-25.592-9.763-35.355 0l-28.285 28.285c-9.763 9.763-9.763 25.592 0 35.355z"/><path d="m56.317 86.317h90v30h-90z" transform="matrix(.707 -.707 .707 .707 -41.967 101.317)"/><path d="m459.139 400.51-58.629 58.629 89.047 50.884c5.874 3.356 13.266 2.366 18.049-2.417s5.773-12.176 2.417-18.049z"/><path d="m225.874 76.085h90v389.579h-90z" transform="matrix(.707 -.707 .707 .707 -112.2 270.874)"/><path d="m340.853 234.786 30.926-30.926c37.834 13.481 80.683 4.17 109.521-24.668 27.446-27.446 36.487-66.428 27.132-101.479-2.968-11.119-16.942-14.776-25.079-6.639l-48.013 48.014-42.427-42.427 48.014-48.014c8.138-8.137 4.48-22.111-6.638-25.079-35.052-9.355-74.034-.314-101.48 27.132-28.839 28.839-38.149 71.687-24.669 109.522l-30.925 30.925z"/><path d="m171.147 277.214-30.925 30.925c-37.836-13.479-80.683-4.169-109.522 24.669-27.446 27.446-36.487 66.428-27.132 101.48 2.968 11.119 16.942 14.776 25.079 6.638l48.014-48.014 42.427 42.427-48.014 48.013c-8.138 8.138-4.48 22.112 6.639 25.079 35.052 9.355 74.034.314 101.479-27.132 28.839-28.839 38.149-71.687 24.669-109.521l30.926-30.926z"/></g></svg>