<svg id="Layer_1" data-name="Layer 1" xmlns="http://www.w3.org/2000/svg" viewBox="0 0 631 631"><defs><style>.cls-1{fill:#194f8f;}.cls-2{fill:none;stroke:#7f3;stroke-opacity:0.2;}</style></defs><title>194f8f</title><rect class="cls-1" x="80.5" y="80.5" width="400" height="400"/><rect class="cls-2" x="0.5" y="160.5" width="150" height="150"/><rect class="cls-2" x="10.5" y="170.5" width="130" height="130"/><rect class="cls-2" x="20.5" y="180.5" width="110" height="110"/><rect class="cls-2" x="30.5" y="190.5" width="90" height="90"/><rect class="cls-2" x="40.5" y="200.5" width="70" height="70"/><rect class="cls-2" x="50.5" y="210.5" width="50" height="50"/><rect class="cls-2" x="60.5" y="220.5" width="30" height="30"/><rect class="cls-2" x="70.5" y="230.5" width="10" height="10"/><rect class="cls-2" x="80.5" y="80.5" width="70" height="70"/><rect class="cls-2" x="90.5" y="90.5" width="50" height="50"/><rect class="cls-2" x="100.5" y="100.5" width="30" height="30"/><rect class="cls-2" x="110.5" y="110.5" width="10" height="10"/><rect class="cls-2" x="160.5" y="80.5" width="150" height="150"/><rect class="cls-2" x="170.5" y="90.5" width="130" height="130"/><rect class="cls-2" x="180.5" y="100.5" width="110" height="110"/><rect class="cls-2" x="190.5" y="110.5" width="90" height="90"/><rect class="cls-2" x="200.5" y="120.5" width="70" height="70"/><rect class="cls-2" x="210.5" y="130.5" width="50" height="50"/><rect class="cls-2" x="220.5" y="140.5" width="30" height="30"/><rect class="cls-2" x="230.5" y="150.5" width="10" height="10"/><rect class="cls-2" x="160.5" y="240.5" width="70" height="70"/><rect class="cls-2" x="170.5" y="250.5" width="50" height="50"/><rect class="cls-2" x="180.5" y="260.5" width="30" height="30"/><rect class="cls-2" x="190.5" y="270.5" width="10" height="10"/><rect class="cls-2" x="320.5" y="0.5" width="150" height="150"/><rect class="cls-2" x="330.5" y="10.5" width="130" height="130"/><rect class="cls-2" x="340.5" y="20.5" width="110" height="110"/><rect class="cls-2" x="350.5" y="30.5" width="90" height="90"/><rect class="cls-2" x="360.5" y="40.5" width="70" height="70"/><rect class="cls-2" x="370.5" y="50.5" width="50" height="50"/><rect class="cls-2" x="380.5" y="60.5" width="30" height="30"/><rect class="cls-2" x="390.5" y="70.5" width="10" height="10"/><rect class="cls-2" x="320.5" y="160.5" width="70" height="70"/><rect class="cls-2" x="330.5" y="170.5" width="50" height="50"/><rect class="cls-2" x="340.5" y="180.5" width="30" height="30"/><rect class="cls-2" x="350.5" y="190.5" width="10" height="10"/><rect class="cls-2" x="80.5" y="320.5" width="150" height="150"/><rect class="cls-2" x="90.5" y="330.5" width="130" height="130"/><rect class="cls-2" x="100.5" y="340.5" width="110" height="110"/><rect class="cls-2" x="110.5" y="350.5" width="90" height="90"/><rect class="cls-2" x="120.5" y="360.5" width="70" height="70"/><rect class="cls-2" x="130.5" y="370.5" width="50" height="50"/><rect class="cls-2" x="140.5" y="380.5" width="30" height="30"/><rect class="cls-2" x="150.5" y="390.5" width="10" height="10"/><rect class="cls-2" x="480.5" y="320.5" width="150" height="150"/><rect class="cls-2" x="160.5" y="480.5" width="150" height="150"/><rect class="cls-2" x="240.5" y="240.5" width="150" height="150"/><rect class="cls-2" x="250.5" y="250.5" width="130" height="130"/><rect class="cls-2" x="260.5" y="260.5" width="110" height="110"/><rect class="cls-2" x="270.5" y="270.5" width="90" height="90"/><rect class="cls-2" x="280.5" y="280.5" width="70" height="70"/><rect class="cls-2" x="290.5" y="290.5" width="50" height="50"/><rect class="cls-2" x="300.5" y="300.5" width="30" height="30"/><rect class="cls-2" x="310.5" y="310.5" width="10" height="10"/><rect class="cls-2" x="240.5" y="400.5" width="70" height="70"/><rect class="cls-2" x="250.5" y="410.5" width="50" height="50"/><rect class="cls-2" x="260.5" y="420.5" width="30" height="30"/><rect class="cls-2" x="270.5" y="430.5" width="10" height="10"/><rect class="cls-2" x="320.5" y="400.5" width="150" height="150"/><rect class="cls-2" x="330.5" y="410.5" width="130" height="130"/><rect class="cls-2" x="340.5" y="420.5" width="110" height="110"/><rect class="cls-2" x="350.5" y="430.5" width="90" height="90"/><rect class="cls-2" x="360.5" y="440.5" width="70" height="70"/><rect class="cls-2" x="370.5" y="450.5" width="50" height="50"/><rect class="cls-2" x="380.5" y="460.5" width="30" height="30"/><rect class="cls-2" x="390.5" y="470.5" width="10" height="10"/><rect class="cls-2" x="400.5" y="160.5" width="150" height="150"/><rect class="cls-2" x="410.5" y="170.5" width="130" height="130"/><rect class="cls-2" x="420.5" y="180.5" width="110" height="110"/><rect class="cls-2" x="430.5" y="190.5" width="90" height="90"/><rect class="cls-2" x="440.5" y="200.5" width="70" height="70"/><rect class="cls-2" x="450.5" y="210.5" width="50" height="50"/><rect class="cls-2" x="460.5" y="220.5" width="30" height="30"/><rect class="cls-2" x="470.5" y="230.5" width="10" height="10"/><rect class="cls-2" x="400.5" y="320.5" width="70" height="70"/><rect class="cls-2" x="410.5" y="330.5" width="50" height="50"/><rect class="cls-2" x="420.5" y="340.5" width="30" height="30"/><rect class="cls-2" x="430.5" y="350.5" width="10" height="10"/><rect class="cls-2" x="480.5" y="480.5" width="70" height="70"/><rect class="cls-2" x="480.5" y="80.5" width="70" height="70"/><rect class="cls-2" x="80.5" y="480.5" width="70" height="70"/></svg>