<svg id="Layer_1" data-name="Layer 1" xmlns="http://www.w3.org/2000/svg" viewBox="0 0 4957.65 3900.74"><defs><style>.cls-1{fill:#194f8f;}.cls-2{fill:none;stroke:#7f3;stroke-opacity:0.2;}</style></defs><title>turtoil-noise2</title><rect class="cls-1" x="834.65" y="1155.86" width="2891.42" height="1799.64"/><rect class="cls-2" x="1584.29" y="1622.96" width="427.19" height="427.19"/><rect class="cls-2" x="1612.77" y="1651.44" width="370.23" height="370.23"/><rect class="cls-2" x="1641.25" y="1679.92" width="313.27" height="313.27"/><rect class="cls-2" x="1669.73" y="1708.4" width="256.31" height="256.31"/><rect class="cls-2" x="1698.21" y="1736.88" width="199.36" height="199.36"/><rect class="cls-2" x="1726.69" y="1765.36" width="142.4" height="142.4"/><rect class="cls-2" x="1755.17" y="1793.84" width="85.44" height="85.44"/><rect class="cls-2" x="1783.65" y="1822.32" width="28.48" height="28.48"/><rect class="cls-2" x="1812.12" y="1395.13" width="199.36" height="199.36"/><rect class="cls-2" x="1840.6" y="1423.61" width="142.4" height="142.4"/><rect class="cls-2" x="1869.08" y="1452.09" width="85.44" height="85.44"/><rect class="cls-2" x="1897.56" y="1480.57" width="28.48" height="28.48"/><rect class="cls-2" x="2039.96" y="1395.13" width="427.19" height="427.19"/><rect class="cls-2" x="2068.44" y="1423.61" width="370.23" height="370.23"/><rect class="cls-2" x="2096.92" y="1452.09" width="313.27" height="313.27"/><rect class="cls-2" x="2125.4" y="1480.57" width="256.31" height="256.31"/><rect class="cls-2" x="2153.88" y="1509.05" width="199.36" height="199.36"/><rect class="cls-2" x="2182.36" y="1537.52" width="142.4" height="142.4"/><rect class="cls-2" x="2210.84" y="1566" width="85.44" height="85.44"/><rect class="cls-2" x="2239.32" y="1594.48" width="28.48" height="28.48"/><rect class="cls-2" x="2039.96" y="1850.8" width="199.36" height="199.36"/><rect class="cls-2" x="2068.44" y="1879.28" width="142.4" height="142.4"/><rect class="cls-2" x="2096.92" y="1907.76" width="85.44" height="85.44"/><rect class="cls-2" x="2125.4" y="1936.24" width="28.48" height="28.48"/><rect class="cls-2" x="2495.63" y="1167.29" width="427.19" height="427.19"/><rect class="cls-2" x="2524.11" y="1195.77" width="370.23" height="370.23"/><rect class="cls-2" x="2552.59" y="1224.25" width="313.27" height="313.27"/><rect class="cls-2" x="2581.07" y="1252.73" width="256.31" height="256.31"/><rect class="cls-2" x="2609.55" y="1281.21" width="199.36" height="199.36"/><rect class="cls-2" x="2638.03" y="1309.69" width="142.4" height="142.4"/><rect class="cls-2" x="2666.51" y="1338.17" width="85.44" height="85.44"/><rect class="cls-2" x="2694.99" y="1366.65" width="28.48" height="28.48"/><rect class="cls-2" x="2495.63" y="1622.96" width="199.36" height="199.36"/><rect class="cls-2" x="2524.11" y="1651.44" width="142.4" height="142.4"/><rect class="cls-2" x="2552.59" y="1679.92" width="85.44" height="85.44"/><rect class="cls-2" x="2581.07" y="1708.4" width="28.48" height="28.48"/><rect class="cls-2" x="1812.12" y="2078.63" width="427.19" height="427.19"/><rect class="cls-2" x="1840.6" y="2107.11" width="370.23" height="370.23"/><rect class="cls-2" x="1869.08" y="2135.59" width="313.27" height="313.27"/><rect class="cls-2" x="1897.56" y="2164.07" width="256.31" height="256.31"/><rect class="cls-2" x="1926.04" y="2192.55" width="199.36" height="199.36"/><rect class="cls-2" x="1954.52" y="2221.03" width="142.4" height="142.4"/><rect class="cls-2" x="1983" y="2249.51" width="85.44" height="85.44"/><rect class="cls-2" x="2011.48" y="2277.99" width="28.48" height="28.48"/><rect class="cls-2" x="2951.3" y="2078.63" width="427.19" height="427.19"/><rect class="cls-2" x="2039.96" y="2534.3" width="427.19" height="427.19"/><rect class="cls-2" x="2267.8" y="1850.8" width="427.19" height="427.19"/><rect class="cls-2" x="2296.27" y="1879.28" width="370.23" height="370.23"/><rect class="cls-2" x="2324.75" y="1907.76" width="313.27" height="313.27"/><rect class="cls-2" x="2353.23" y="1936.24" width="256.31" height="256.31"/><rect class="cls-2" x="2381.71" y="1964.72" width="199.36" height="199.36"/><rect class="cls-2" x="2410.19" y="1993.2" width="142.4" height="142.4"/><rect class="cls-2" x="2438.67" y="2021.67" width="85.44" height="85.44"/><rect class="cls-2" x="2467.15" y="2050.15" width="28.48" height="28.48"/><rect class="cls-2" x="2267.8" y="2306.47" width="199.36" height="199.36"/><rect class="cls-2" x="2296.27" y="2334.95" width="142.4" height="142.4"/><rect class="cls-2" x="2324.75" y="2363.43" width="85.44" height="85.44"/><rect class="cls-2" x="2353.23" y="2391.91" width="28.48" height="28.48"/><rect class="cls-2" x="2495.63" y="2306.47" width="427.19" height="427.19"/><rect class="cls-2" x="2524.11" y="2334.95" width="370.23" height="370.23"/><rect class="cls-2" x="2552.59" y="2363.43" width="313.27" height="313.27"/><rect class="cls-2" x="2581.07" y="2391.91" width="256.31" height="256.31"/><rect class="cls-2" x="2609.55" y="2420.39" width="199.36" height="199.36"/><rect class="cls-2" x="2638.03" y="2448.87" width="142.4" height="142.4"/><rect class="cls-2" x="2666.51" y="2477.35" width="85.44" height="85.44"/><rect class="cls-2" x="2694.99" y="2505.82" width="28.48" height="28.48"/><rect class="cls-2" x="2723.47" y="1622.96" width="427.19" height="427.19"/><rect class="cls-2" x="2751.95" y="1651.44" width="370.23" height="370.23"/><rect class="cls-2" x="2780.42" y="1679.92" width="313.27" height="313.27"/><rect class="cls-2" x="2808.9" y="1708.4" width="256.31" height="256.31"/><rect class="cls-2" x="2837.38" y="1736.88" width="199.36" height="199.36"/><rect class="cls-2" x="2865.86" y="1765.36" width="142.4" height="142.4"/><rect class="cls-2" x="2894.34" y="1793.84" width="85.44" height="85.44"/><rect class="cls-2" x="2922.82" y="1822.32" width="28.48" height="28.48"/><rect class="cls-2" x="2723.47" y="2078.63" width="199.36" height="199.36"/><rect class="cls-2" x="2751.95" y="2107.11" width="142.4" height="142.4"/><rect class="cls-2" x="2780.42" y="2135.59" width="85.44" height="85.44"/><rect class="cls-2" x="2808.9" y="2164.07" width="28.48" height="28.48"/><rect class="cls-2" x="2951.3" y="2534.3" width="199.36" height="199.36"/><rect class="cls-2" x="2951.3" y="1395.13" width="199.36" height="199.36"/><rect class="cls-2" x="1812.12" y="2534.3" width="199.36" height="199.36"/><rect class="cls-2" x="3162.95" y="1622.96" width="427.19" height="427.19"/><rect class="cls-2" x="3191.43" y="1651.44" width="370.23" height="370.23"/><rect class="cls-2" x="3219.91" y="1679.92" width="313.27" height="313.27"/><rect class="cls-2" x="3248.39" y="1708.4" width="256.31" height="256.31"/><rect class="cls-2" x="3276.87" y="1736.88" width="199.36" height="199.36"/><rect class="cls-2" x="3305.35" y="1765.36" width="142.4" height="142.4"/><rect class="cls-2" x="3333.83" y="1793.84" width="85.44" height="85.44"/><rect class="cls-2" x="3362.31" y="1822.32" width="28.48" height="28.48"/><rect class="cls-2" x="3390.79" y="1395.13" width="199.36" height="199.36"/><rect class="cls-2" x="3419.26" y="1423.61" width="142.4" height="142.4"/><rect class="cls-2" x="3447.74" y="1452.09" width="85.44" height="85.44"/><rect class="cls-2" x="3476.22" y="1480.57" width="28.48" height="28.48"/><rect class="cls-2" x="3618.62" y="1395.13" width="427.19" height="427.19"/><rect class="cls-2" x="3647.1" y="1423.61" width="370.23" height="370.23"/><rect class="cls-2" x="3675.58" y="1452.09" width="313.27" height="313.27"/><rect class="cls-2" x="3704.06" y="1480.57" width="256.31" height="256.31"/><rect class="cls-2" x="3732.54" y="1509.05" width="199.36" height="199.36"/><rect class="cls-2" x="3761.02" y="1537.52" width="142.4" height="142.4"/><rect class="cls-2" x="3789.5" y="1566" width="85.44" height="85.44"/><rect class="cls-2" x="3817.98" y="1594.48" width="28.48" height="28.48"/><rect class="cls-2" x="3618.62" y="1850.8" width="199.36" height="199.36"/><rect class="cls-2" x="3647.1" y="1879.28" width="142.4" height="142.4"/><rect class="cls-2" x="3675.58" y="1907.76" width="85.44" height="85.44"/><rect class="cls-2" x="3704.06" y="1936.24" width="28.48" height="28.48"/><rect class="cls-2" x="4074.29" y="1167.29" width="427.19" height="427.19"/><rect class="cls-2" x="4102.77" y="1195.77" width="370.23" height="370.23"/><rect class="cls-2" x="4131.25" y="1224.25" width="313.27" height="313.27"/><rect class="cls-2" x="4159.73" y="1252.73" width="256.31" height="256.31"/><rect class="cls-2" x="4188.21" y="1281.21" width="199.36" height="199.36"/><rect class="cls-2" x="4216.69" y="1309.69" width="142.4" height="142.4"/><rect class="cls-2" x="4245.17" y="1338.17" width="85.44" height="85.44"/><rect class="cls-2" x="4273.65" y="1366.65" width="28.48" height="28.48"/><rect class="cls-2" x="4074.29" y="1622.96" width="199.36" height="199.36"/><rect class="cls-2" x="4102.77" y="1651.44" width="142.4" height="142.4"/><rect class="cls-2" x="4131.25" y="1679.92" width="85.44" height="85.44"/><rect class="cls-2" x="4159.73" y="1708.4" width="28.48" height="28.48"/><rect class="cls-2" x="3390.79" y="2078.63" width="427.19" height="427.19"/><rect class="cls-2" x="3419.26" y="2107.11" width="370.23" height="370.23"/><rect class="cls-2" x="3447.74" y="2135.59" width="313.27" height="313.27"/><rect class="cls-2" x="3476.22" y="2164.07" width="256.31" height="256.31"/><rect class="cls-2" x="3504.7" y="2192.55" width="199.36" height="199.36"/><rect class="cls-2" x="3533.18" y="2221.03" width="142.4" height="142.4"/><rect class="cls-2" x="3561.66" y="2249.51" width="85.44" height="85.44"/><rect class="cls-2" x="3590.14" y="2277.99" width="28.48" height="28.48"/><rect class="cls-2" x="4529.96" y="2078.63" width="427.19" height="427.19"/><rect class="cls-2" x="3618.62" y="2534.3" width="427.19" height="427.19"/><rect class="cls-2" x="3846.46" y="1850.8" width="427.19" height="427.19"/><rect class="cls-2" x="3874.94" y="1879.28" width="370.23" height="370.23"/><rect class="cls-2" x="3903.41" y="1907.76" width="313.27" height="313.27"/><rect class="cls-2" x="3931.89" y="1936.24" width="256.31" height="256.31"/><rect class="cls-2" x="3960.37" y="1964.72" width="199.36" height="199.36"/><rect class="cls-2" x="3988.85" y="1993.2" width="142.4" height="142.4"/><rect class="cls-2" x="4017.33" y="2021.67" width="85.44" height="85.44"/><rect class="cls-2" x="4045.81" y="2050.15" width="28.48" height="28.48"/><rect class="cls-2" x="3846.46" y="2306.47" width="199.36" height="199.36"/><rect class="cls-2" x="3874.94" y="2334.95" width="142.4" height="142.4"/><rect class="cls-2" x="3903.41" y="2363.43" width="85.44" height="85.44"/><rect class="cls-2" x="3931.89" y="2391.91" width="28.48" height="28.48"/><rect class="cls-2" x="4074.29" y="2306.47" width="427.19" height="427.19"/><rect class="cls-2" x="4102.77" y="2334.95" width="370.23" height="370.23"/><rect class="cls-2" x="4131.25" y="2363.43" width="313.27" height="313.27"/><rect class="cls-2" x="4159.73" y="2391.91" width="256.31" height="256.31"/><rect class="cls-2" x="4188.21" y="2420.39" width="199.36" height="199.36"/><rect class="cls-2" x="4216.69" y="2448.87" width="142.4" height="142.4"/><rect class="cls-2" x="4245.17" y="2477.35" width="85.44" height="85.44"/><rect class="cls-2" x="4273.65" y="2505.82" width="28.48" height="28.48"/><rect class="cls-2" x="4302.13" y="1622.96" width="427.19" height="427.19"/><rect class="cls-2" x="4330.61" y="1651.44" width="370.23" height="370.23"/><rect class="cls-2" x="4359.09" y="1679.92" width="313.27" height="313.27"/><rect class="cls-2" x="4387.56" y="1708.4" width="256.31" height="256.31"/><rect class="cls-2" x="4416.04" y="1736.88" width="199.36" height="199.36"/><rect class="cls-2" x="4444.52" y="1765.36" width="142.4" height="142.4"/><rect class="cls-2" x="4473" y="1793.84" width="85.44" height="85.44"/><rect class="cls-2" x="4501.48" y="1822.32" width="28.48" height="28.48"/><rect class="cls-2" x="4302.13" y="2078.63" width="199.36" height="199.36"/><rect class="cls-2" x="4330.61" y="2107.11" width="142.4" height="142.4"/><rect class="cls-2" x="4359.09" y="2135.59" width="85.44" height="85.44"/><rect class="cls-2" x="4387.56" y="2164.07" width="28.48" height="28.48"/><rect class="cls-2" x="4529.96" y="2534.3" width="199.36" height="199.36"/><rect class="cls-2" x="4529.96" y="1395.13" width="199.36" height="199.36"/><rect class="cls-2" x="3390.79" y="2534.3" width="199.36" height="199.36"/><rect class="cls-2" x="0.5" y="1622.96" width="427.19" height="427.19"/><rect class="cls-2" x="28.98" y="1651.44" width="370.23" height="370.23"/><rect class="cls-2" x="57.46" y="1679.92" width="313.27" height="313.27"/><rect class="cls-2" x="85.94" y="1708.4" width="256.31" height="256.31"/><rect class="cls-2" x="114.42" y="1736.88" width="199.36" height="199.36"/><rect class="cls-2" x="142.9" y="1765.36" width="142.4" height="142.4"/><rect class="cls-2" x="171.38" y="1793.84" width="85.44" height="85.44"/><rect class="cls-2" x="199.86" y="1822.32" width="28.48" height="28.48"/><rect class="cls-2" x="228.34" y="1395.13" width="199.36" height="199.36"/><rect class="cls-2" x="256.81" y="1423.61" width="142.4" height="142.4"/><rect class="cls-2" x="285.29" y="1452.09" width="85.44" height="85.44"/><rect class="cls-2" x="313.77" y="1480.57" width="28.48" height="28.48"/><rect class="cls-2" x="456.17" y="1395.13" width="427.19" height="427.19"/><rect class="cls-2" x="484.65" y="1423.61" width="370.23" height="370.23"/><rect class="cls-2" x="513.13" y="1452.09" width="313.27" height="313.27"/><rect class="cls-2" x="541.61" y="1480.57" width="256.31" height="256.31"/><rect class="cls-2" x="570.09" y="1509.05" width="199.36" height="199.36"/><rect class="cls-2" x="598.57" y="1537.52" width="142.4" height="142.4"/><rect class="cls-2" x="627.05" y="1566" width="85.44" height="85.44"/><rect class="cls-2" x="655.53" y="1594.48" width="28.48" height="28.48"/><rect class="cls-2" x="456.17" y="1850.8" width="199.36" height="199.36"/><rect class="cls-2" x="484.65" y="1879.28" width="142.4" height="142.4"/><rect class="cls-2" x="513.13" y="1907.76" width="85.44" height="85.44"/><rect class="cls-2" x="541.61" y="1936.24" width="28.48" height="28.48"/><rect class="cls-2" x="911.84" y="1167.29" width="427.19" height="427.19"/><rect class="cls-2" x="940.32" y="1195.77" width="370.23" height="370.23"/><rect class="cls-2" x="968.8" y="1224.25" width="313.27" height="313.27"/><rect class="cls-2" x="997.28" y="1252.73" width="256.31" height="256.31"/><rect class="cls-2" x="1025.76" y="1281.21" width="199.36" height="199.36"/><rect class="cls-2" x="1054.24" y="1309.69" width="142.4" height="142.4"/><rect class="cls-2" x="1082.72" y="1338.17" width="85.44" height="85.44"/><rect class="cls-2" x="1111.2" y="1366.65" width="28.48" height="28.48"/><rect class="cls-2" x="911.84" y="1622.96" width="199.36" height="199.36"/><rect class="cls-2" x="940.32" y="1651.44" width="142.4" height="142.4"/><rect class="cls-2" x="968.8" y="1679.92" width="85.44" height="85.44"/><rect class="cls-2" x="997.28" y="1708.4" width="28.48" height="28.48"/><rect class="cls-2" x="228.34" y="2078.63" width="427.19" height="427.19"/><rect class="cls-2" x="256.81" y="2107.11" width="370.23" height="370.23"/><rect class="cls-2" x="285.29" y="2135.59" width="313.27" height="313.27"/><rect class="cls-2" x="313.77" y="2164.07" width="256.31" height="256.31"/><rect class="cls-2" x="342.25" y="2192.55" width="199.36" height="199.36"/><rect class="cls-2" x="370.73" y="2221.03" width="142.4" height="142.4"/><rect class="cls-2" x="399.21" y="2249.51" width="85.44" height="85.44"/><rect class="cls-2" x="427.69" y="2277.99" width="28.48" height="28.48"/><rect class="cls-2" x="1367.51" y="2078.63" width="427.19" height="427.19"/><rect class="cls-2" x="456.17" y="2534.3" width="427.19" height="427.19"/><rect class="cls-2" x="684.01" y="1850.8" width="427.19" height="427.19"/><rect class="cls-2" x="712.49" y="1879.28" width="370.23" height="370.23"/><rect class="cls-2" x="740.96" y="1907.76" width="313.27" height="313.27"/><rect class="cls-2" x="769.44" y="1936.24" width="256.31" height="256.31"/><rect class="cls-2" x="797.92" y="1964.72" width="199.36" height="199.36"/><rect class="cls-2" x="826.4" y="1993.2" width="142.4" height="142.4"/><rect class="cls-2" x="854.88" y="2021.67" width="85.44" height="85.44"/><rect class="cls-2" x="883.36" y="2050.15" width="28.48" height="28.48"/><rect class="cls-2" x="684.01" y="2306.47" width="199.36" height="199.36"/><rect class="cls-2" x="712.49" y="2334.95" width="142.4" height="142.4"/><rect class="cls-2" x="740.96" y="2363.43" width="85.44" height="85.44"/><rect class="cls-2" x="769.44" y="2391.91" width="28.48" height="28.48"/><rect class="cls-2" x="911.84" y="2306.47" width="427.19" height="427.19"/><rect class="cls-2" x="940.32" y="2334.95" width="370.23" height="370.23"/><rect class="cls-2" x="968.8" y="2363.43" width="313.27" height="313.27"/><rect class="cls-2" x="997.28" y="2391.91" width="256.31" height="256.31"/><rect class="cls-2" x="1025.76" y="2420.39" width="199.36" height="199.36"/><rect class="cls-2" x="1054.24" y="2448.87" width="142.4" height="142.4"/><rect class="cls-2" x="1082.72" y="2477.35" width="85.44" height="85.44"/><rect class="cls-2" x="1111.2" y="2505.82" width="28.48" height="28.48"/><rect class="cls-2" x="1139.68" y="1622.96" width="427.19" height="427.19"/><rect class="cls-2" x="1168.16" y="1651.44" width="370.23" height="370.23"/><rect class="cls-2" x="1196.64" y="1679.92" width="313.27" height="313.27"/><rect class="cls-2" x="1225.11" y="1708.4" width="256.31" height="256.31"/><rect class="cls-2" x="1253.59" y="1736.88" width="199.36" height="199.36"/><rect class="cls-2" x="1282.07" y="1765.36" width="142.4" height="142.4"/><rect class="cls-2" x="1310.55" y="1793.84" width="85.44" height="85.44"/><rect class="cls-2" x="1339.03" y="1822.32" width="28.48" height="28.48"/><rect class="cls-2" x="1139.68" y="2078.63" width="199.36" height="199.36"/><rect class="cls-2" x="1168.16" y="2107.11" width="142.4" height="142.4"/><rect class="cls-2" x="1196.64" y="2135.59" width="85.44" height="85.44"/><rect class="cls-2" x="1225.11" y="2164.07" width="28.48" height="28.48"/><rect class="cls-2" x="1367.51" y="2534.3" width="199.36" height="199.36"/><rect class="cls-2" x="1367.51" y="1395.13" width="199.36" height="199.36"/><rect class="cls-2" x="228.34" y="2534.3" width="199.36" height="199.36"/><rect class="cls-2" x="486.52" y="2561.71" width="427.19" height="427.19"/><rect class="cls-2" x="515" y="2590.19" width="370.23" height="370.23"/><rect class="cls-2" x="543.48" y="2618.67" width="313.27" height="313.27"/><rect class="cls-2" x="571.96" y="2647.15" width="256.31" height="256.31"/><rect class="cls-2" x="600.44" y="2675.63" width="199.36" height="199.36"/><rect class="cls-2" x="628.92" y="2704.11" width="142.4" height="142.4"/><rect class="cls-2" x="657.4" y="2732.59" width="85.44" height="85.44"/><rect class="cls-2" x="685.87" y="2761.07" width="28.48" height="28.48"/><rect class="cls-2" x="714.35" y="2333.88" width="199.36" height="199.36"/><rect class="cls-2" x="742.83" y="2362.36" width="142.4" height="142.4"/><rect class="cls-2" x="771.31" y="2390.83" width="85.44" height="85.44"/><rect class="cls-2" x="799.79" y="2419.31" width="28.48" height="28.48"/><rect class="cls-2" x="942.19" y="2333.88" width="427.19" height="427.19"/><rect class="cls-2" x="970.67" y="2362.36" width="370.23" height="370.23"/><rect class="cls-2" x="999.15" y="2390.83" width="313.27" height="313.27"/><rect class="cls-2" x="1027.63" y="2419.31" width="256.31" height="256.31"/><rect class="cls-2" x="1056.11" y="2447.79" width="199.36" height="199.36"/><rect class="cls-2" x="1084.59" y="2476.27" width="142.4" height="142.4"/><rect class="cls-2" x="1113.07" y="2504.75" width="85.44" height="85.44"/><rect class="cls-2" x="1141.55" y="2533.23" width="28.48" height="28.48"/><rect class="cls-2" x="942.19" y="2789.55" width="199.36" height="199.36"/><rect class="cls-2" x="970.67" y="2818.03" width="142.4" height="142.4"/><rect class="cls-2" x="999.15" y="2846.51" width="85.44" height="85.44"/><rect class="cls-2" x="1027.63" y="2874.98" width="28.48" height="28.48"/><rect class="cls-2" x="1397.86" y="2106.04" width="427.19" height="427.19"/><rect class="cls-2" x="1426.34" y="2134.52" width="370.23" height="370.23"/><rect class="cls-2" x="1454.82" y="2163" width="313.27" height="313.27"/><rect class="cls-2" x="1483.3" y="2191.48" width="256.31" height="256.31"/><rect class="cls-2" x="1511.78" y="2219.96" width="199.36" height="199.36"/><rect class="cls-2" x="1540.26" y="2248.44" width="142.4" height="142.4"/><rect class="cls-2" x="1568.74" y="2276.92" width="85.44" height="85.44"/><rect class="cls-2" x="1597.22" y="2305.4" width="28.48" height="28.48"/><rect class="cls-2" x="1397.86" y="2561.71" width="199.36" height="199.36"/><rect class="cls-2" x="1426.34" y="2590.19" width="142.4" height="142.4"/><rect class="cls-2" x="1454.82" y="2618.67" width="85.44" height="85.44"/><rect class="cls-2" x="1483.3" y="2647.15" width="28.48" height="28.48"/><rect class="cls-2" x="714.35" y="3017.38" width="427.19" height="427.19"/><rect class="cls-2" x="742.83" y="3045.86" width="370.23" height="370.23"/><rect class="cls-2" x="771.31" y="3074.34" width="313.27" height="313.27"/><rect class="cls-2" x="799.79" y="3102.82" width="256.31" height="256.31"/><rect class="cls-2" x="828.27" y="3131.3" width="199.36" height="199.36"/><rect class="cls-2" x="856.75" y="3159.78" width="142.4" height="142.4"/><rect class="cls-2" x="885.23" y="3188.26" width="85.44" height="85.44"/><rect class="cls-2" x="913.71" y="3216.74" width="28.48" height="28.48"/><rect class="cls-2" x="1853.53" y="3017.38" width="427.19" height="427.19"/><rect class="cls-2" x="942.19" y="3473.05" width="427.19" height="427.19"/><rect class="cls-2" x="1170.02" y="2789.55" width="427.19" height="427.19"/><rect class="cls-2" x="1198.5" y="2818.03" width="370.23" height="370.23"/><rect class="cls-2" x="1226.98" y="2846.51" width="313.27" height="313.27"/><rect class="cls-2" x="1255.46" y="2874.98" width="256.31" height="256.31"/><rect class="cls-2" x="1283.94" y="2903.46" width="199.36" height="199.36"/><rect class="cls-2" x="1312.42" y="2931.94" width="142.4" height="142.4"/><rect class="cls-2" x="1340.9" y="2960.42" width="85.44" height="85.44"/><rect class="cls-2" x="1369.38" y="2988.9" width="28.48" height="28.48"/><rect class="cls-2" x="1170.02" y="3245.22" width="199.36" height="199.36"/><rect class="cls-2" x="1198.5" y="3273.7" width="142.4" height="142.4"/><rect class="cls-2" x="1226.98" y="3302.18" width="85.44" height="85.44"/><rect class="cls-2" x="1255.46" y="3330.66" width="28.48" height="28.48"/><rect class="cls-2" x="1397.86" y="3245.22" width="427.19" height="427.19"/><rect class="cls-2" x="1426.34" y="3273.7" width="370.23" height="370.23"/><rect class="cls-2" x="1454.82" y="3302.18" width="313.27" height="313.27"/><rect class="cls-2" x="1483.3" y="3330.66" width="256.31" height="256.31"/><rect class="cls-2" x="1511.78" y="3359.13" width="199.36" height="199.36"/><rect class="cls-2" x="1540.26" y="3387.61" width="142.4" height="142.4"/><rect class="cls-2" x="1568.74" y="3416.09" width="85.44" height="85.44"/><rect class="cls-2" x="1597.22" y="3444.57" width="28.48" height="28.48"/><rect class="cls-2" x="1625.7" y="2561.71" width="427.19" height="427.19"/><rect class="cls-2" x="1654.17" y="2590.19" width="370.23" height="370.23"/><rect class="cls-2" x="1682.65" y="2618.67" width="313.27" height="313.27"/><rect class="cls-2" x="1711.13" y="2647.15" width="256.31" height="256.31"/><rect class="cls-2" x="1739.61" y="2675.63" width="199.36" height="199.36"/><rect class="cls-2" x="1768.09" y="2704.11" width="142.4" height="142.4"/><rect class="cls-2" x="1796.57" y="2732.59" width="85.44" height="85.44"/><rect class="cls-2" x="1825.05" y="2761.07" width="28.48" height="28.48"/><rect class="cls-2" x="1625.7" y="3017.38" width="199.36" height="199.36"/><rect class="cls-2" x="1654.17" y="3045.86" width="142.4" height="142.4"/><rect class="cls-2" x="1682.65" y="3074.34" width="85.44" height="85.44"/><rect class="cls-2" x="1711.13" y="3102.82" width="28.48" height="28.48"/><rect class="cls-2" x="1853.53" y="3473.05" width="199.36" height="199.36"/><rect class="cls-2" x="1853.53" y="2333.88" width="199.36" height="199.36"/><rect class="cls-2" x="714.35" y="3473.05" width="199.36" height="199.36"/><rect class="cls-2" x="2043" y="2561.71" width="427.19" height="427.19"/><rect class="cls-2" x="2071.48" y="2590.19" width="370.23" height="370.23"/><rect class="cls-2" x="2099.96" y="2618.67" width="313.27" height="313.27"/><rect class="cls-2" x="2128.44" y="2647.15" width="256.31" height="256.31"/><rect class="cls-2" x="2156.92" y="2675.63" width="199.36" height="199.36"/><rect class="cls-2" x="2185.4" y="2704.11" width="142.4" height="142.4"/><rect class="cls-2" x="2213.88" y="2732.59" width="85.44" height="85.44"/><rect class="cls-2" x="2242.36" y="2761.07" width="28.48" height="28.48"/><rect class="cls-2" x="2270.83" y="2333.88" width="199.36" height="199.36"/><rect class="cls-2" x="2299.31" y="2362.36" width="142.4" height="142.4"/><rect class="cls-2" x="2327.79" y="2390.83" width="85.44" height="85.44"/><rect class="cls-2" x="2356.27" y="2419.31" width="28.48" height="28.48"/><rect class="cls-2" x="2498.67" y="2333.88" width="427.19" height="427.19"/><rect class="cls-2" x="2527.15" y="2362.36" width="370.23" height="370.23"/><rect class="cls-2" x="2555.63" y="2390.83" width="313.27" height="313.27"/><rect class="cls-2" x="2584.11" y="2419.31" width="256.31" height="256.31"/><rect class="cls-2" x="2612.59" y="2447.79" width="199.36" height="199.36"/><rect class="cls-2" x="2641.07" y="2476.27" width="142.4" height="142.4"/><rect class="cls-2" x="2669.55" y="2504.75" width="85.44" height="85.44"/><rect class="cls-2" x="2698.03" y="2533.23" width="28.48" height="28.48"/><rect class="cls-2" x="2498.67" y="2789.55" width="199.36" height="199.36"/><rect class="cls-2" x="2527.15" y="2818.03" width="142.4" height="142.4"/><rect class="cls-2" x="2555.63" y="2846.51" width="85.44" height="85.44"/><rect class="cls-2" x="2584.11" y="2874.98" width="28.48" height="28.48"/><rect class="cls-2" x="2954.34" y="2106.04" width="427.19" height="427.19"/><rect class="cls-2" x="2982.82" y="2134.52" width="370.23" height="370.23"/><rect class="cls-2" x="3011.3" y="2163" width="313.27" height="313.27"/><rect class="cls-2" x="3039.78" y="2191.48" width="256.31" height="256.31"/><rect class="cls-2" x="3068.26" y="2219.96" width="199.36" height="199.36"/><rect class="cls-2" x="3096.74" y="2248.44" width="142.4" height="142.4"/><rect class="cls-2" x="3125.22" y="2276.92" width="85.44" height="85.44"/><rect class="cls-2" x="3153.7" y="2305.4" width="28.48" height="28.48"/><rect class="cls-2" x="2954.34" y="2561.71" width="199.36" height="199.36"/><rect class="cls-2" x="2982.82" y="2590.19" width="142.4" height="142.4"/><rect class="cls-2" x="3011.3" y="2618.67" width="85.44" height="85.44"/><rect class="cls-2" x="3039.78" y="2647.15" width="28.48" height="28.48"/><rect class="cls-2" x="2270.83" y="3017.38" width="427.19" height="427.19"/><rect class="cls-2" x="2299.31" y="3045.86" width="370.23" height="370.23"/><rect class="cls-2" x="2327.79" y="3074.34" width="313.27" height="313.27"/><rect class="cls-2" x="2356.27" y="3102.82" width="256.31" height="256.31"/><rect class="cls-2" x="2384.75" y="3131.3" width="199.36" height="199.36"/><rect class="cls-2" x="2413.23" y="3159.78" width="142.4" height="142.4"/><rect class="cls-2" x="2441.71" y="3188.26" width="85.44" height="85.44"/><rect class="cls-2" x="2470.19" y="3216.74" width="28.48" height="28.48"/><rect class="cls-2" x="3410.01" y="3017.38" width="427.19" height="427.19"/><rect class="cls-2" x="2498.67" y="3473.05" width="427.19" height="427.19"/><rect class="cls-2" x="2726.51" y="2789.55" width="427.19" height="427.19"/><rect class="cls-2" x="2754.98" y="2818.03" width="370.23" height="370.23"/><rect class="cls-2" x="2783.46" y="2846.51" width="313.27" height="313.27"/><rect class="cls-2" x="2811.94" y="2874.98" width="256.31" height="256.31"/><rect class="cls-2" x="2840.42" y="2903.46" width="199.36" height="199.36"/><rect class="cls-2" x="2868.9" y="2931.94" width="142.4" height="142.4"/><rect class="cls-2" x="2897.38" y="2960.42" width="85.44" height="85.44"/><rect class="cls-2" x="2925.86" y="2988.9" width="28.48" height="28.48"/><rect class="cls-2" x="2726.51" y="3245.22" width="199.36" height="199.36"/><rect class="cls-2" x="2754.98" y="3273.7" width="142.4" height="142.4"/><rect class="cls-2" x="2783.46" y="3302.18" width="85.44" height="85.44"/><rect class="cls-2" x="2811.94" y="3330.66" width="28.48" height="28.48"/><rect class="cls-2" x="2954.34" y="3245.22" width="427.19" height="427.19"/><rect class="cls-2" x="2982.82" y="3273.7" width="370.23" height="370.23"/><rect class="cls-2" x="3011.3" y="3302.18" width="313.27" height="313.27"/><rect class="cls-2" x="3039.78" y="3330.66" width="256.31" height="256.31"/><rect class="cls-2" x="3068.26" y="3359.13" width="199.36" height="199.36"/><rect class="cls-2" x="3096.74" y="3387.61" width="142.4" height="142.4"/><rect class="cls-2" x="3125.22" y="3416.09" width="85.44" height="85.44"/><rect class="cls-2" x="3153.7" y="3444.57" width="28.48" height="28.48"/><rect class="cls-2" x="3182.18" y="2561.71" width="427.19" height="427.19"/><rect class="cls-2" x="3210.66" y="2590.19" width="370.23" height="370.23"/><rect class="cls-2" x="3239.13" y="2618.67" width="313.27" height="313.27"/><rect class="cls-2" x="3267.61" y="2647.15" width="256.31" height="256.31"/><rect class="cls-2" x="3296.09" y="2675.63" width="199.36" height="199.36"/><rect class="cls-2" x="3324.57" y="2704.11" width="142.4" height="142.4"/><rect class="cls-2" x="3353.05" y="2732.59" width="85.44" height="85.44"/><rect class="cls-2" x="3381.53" y="2761.07" width="28.48" height="28.48"/><rect class="cls-2" x="3182.18" y="3017.38" width="199.36" height="199.36"/><rect class="cls-2" x="3210.66" y="3045.86" width="142.4" height="142.4"/><rect class="cls-2" x="3239.13" y="3074.34" width="85.44" height="85.44"/><rect class="cls-2" x="3267.61" y="3102.82" width="28.48" height="28.48"/><rect class="cls-2" x="3410.01" y="3473.05" width="199.36" height="199.36"/><rect class="cls-2" x="3410.01" y="2333.88" width="199.36" height="199.36"/><rect class="cls-2" x="2270.83" y="3473.05" width="199.36" height="199.36"/><rect class="cls-2" x="1077.3" y="456.17" width="427.19" height="427.19"/><rect class="cls-2" x="1105.78" y="484.65" width="370.23" height="370.23"/><rect class="cls-2" x="1134.26" y="513.13" width="313.27" height="313.27"/><rect class="cls-2" x="1162.74" y="541.61" width="256.31" height="256.31"/><rect class="cls-2" x="1191.22" y="570.09" width="199.36" height="199.36"/><rect class="cls-2" x="1219.7" y="598.57" width="142.4" height="142.4"/><rect class="cls-2" x="1248.18" y="627.05" width="85.44" height="85.44"/><rect class="cls-2" x="1276.66" y="655.53" width="28.48" height="28.48"/><rect class="cls-2" x="1305.14" y="228.34" width="199.36" height="199.36"/><rect class="cls-2" x="1333.62" y="256.81" width="142.4" height="142.4"/><rect class="cls-2" x="1362.09" y="285.29" width="85.44" height="85.44"/><rect class="cls-2" x="1390.57" y="313.77" width="28.48" height="28.48"/><rect class="cls-2" x="1532.97" y="228.34" width="427.19" height="427.19"/><rect class="cls-2" x="1561.45" y="256.81" width="370.23" height="370.23"/><rect class="cls-2" x="1589.93" y="285.29" width="313.27" height="313.27"/><rect class="cls-2" x="1618.41" y="313.77" width="256.31" height="256.31"/><rect class="cls-2" x="1646.89" y="342.25" width="199.36" height="199.36"/><rect class="cls-2" x="1675.37" y="370.73" width="142.4" height="142.4"/><rect class="cls-2" x="1703.85" y="399.21" width="85.44" height="85.44"/><rect class="cls-2" x="1732.33" y="427.69" width="28.48" height="28.48"/><rect class="cls-2" x="1532.97" y="684.01" width="199.36" height="199.36"/><rect class="cls-2" x="1561.45" y="712.49" width="142.4" height="142.4"/><rect class="cls-2" x="1589.93" y="740.96" width="85.44" height="85.44"/><rect class="cls-2" x="1618.41" y="769.44" width="28.48" height="28.48"/><rect class="cls-2" x="1988.64" y="0.5" width="427.19" height="427.19"/><rect class="cls-2" x="2017.12" y="28.98" width="370.23" height="370.23"/><rect class="cls-2" x="2045.6" y="57.46" width="313.27" height="313.27"/><rect class="cls-2" x="2074.08" y="85.94" width="256.31" height="256.31"/><rect class="cls-2" x="2102.56" y="114.42" width="199.36" height="199.36"/><rect class="cls-2" x="2131.04" y="142.9" width="142.4" height="142.4"/><rect class="cls-2" x="2159.52" y="171.38" width="85.44" height="85.44"/><rect class="cls-2" x="2188" y="199.86" width="28.48" height="28.48"/><rect class="cls-2" x="1988.64" y="456.17" width="199.36" height="199.36"/><rect class="cls-2" x="2017.12" y="484.65" width="142.4" height="142.4"/><rect class="cls-2" x="2045.6" y="513.13" width="85.44" height="85.44"/><rect class="cls-2" x="2074.08" y="541.61" width="28.48" height="28.48"/><rect class="cls-2" x="1305.14" y="911.84" width="427.19" height="427.19"/><rect class="cls-2" x="1333.62" y="940.32" width="370.23" height="370.23"/><rect class="cls-2" x="1362.09" y="968.8" width="313.27" height="313.27"/><rect class="cls-2" x="1390.57" y="997.28" width="256.31" height="256.31"/><rect class="cls-2" x="1419.05" y="1025.76" width="199.36" height="199.36"/><rect class="cls-2" x="1447.53" y="1054.24" width="142.4" height="142.4"/><rect class="cls-2" x="1476.01" y="1082.72" width="85.44" height="85.44"/><rect class="cls-2" x="1504.49" y="1111.2" width="28.48" height="28.48"/><rect class="cls-2" x="2444.31" y="911.84" width="427.19" height="427.19"/><rect class="cls-2" x="1532.97" y="1367.51" width="427.19" height="427.19"/><rect class="cls-2" x="1760.81" y="684.01" width="427.19" height="427.19"/><rect class="cls-2" x="1789.29" y="712.49" width="370.23" height="370.23"/><rect class="cls-2" x="1817.77" y="740.96" width="313.27" height="313.27"/><rect class="cls-2" x="1846.24" y="769.44" width="256.31" height="256.31"/><rect class="cls-2" x="1874.72" y="797.92" width="199.36" height="199.36"/><rect class="cls-2" x="1903.2" y="826.4" width="142.4" height="142.4"/><rect class="cls-2" x="1931.68" y="854.88" width="85.44" height="85.44"/><rect class="cls-2" x="1960.16" y="883.36" width="28.48" height="28.48"/><rect class="cls-2" x="1760.81" y="1139.68" width="199.36" height="199.36"/><rect class="cls-2" x="1789.29" y="1168.16" width="142.4" height="142.4"/><rect class="cls-2" x="1817.77" y="1196.64" width="85.44" height="85.44"/><rect class="cls-2" x="1846.24" y="1225.11" width="28.48" height="28.48"/><rect class="cls-2" x="1988.64" y="1139.68" width="427.19" height="427.19"/><rect class="cls-2" x="2017.12" y="1168.16" width="370.23" height="370.23"/><rect class="cls-2" x="2045.6" y="1196.64" width="313.27" height="313.27"/><rect class="cls-2" x="2074.08" y="1225.11" width="256.31" height="256.31"/><rect class="cls-2" x="2102.56" y="1253.59" width="199.36" height="199.36"/><rect class="cls-2" x="2131.04" y="1282.07" width="142.4" height="142.4"/><rect class="cls-2" x="2159.52" y="1310.55" width="85.44" height="85.44"/><rect class="cls-2" x="2188" y="1339.03" width="28.48" height="28.48"/><rect class="cls-2" x="2216.48" y="456.17" width="427.19" height="427.19"/><rect class="cls-2" x="2244.96" y="484.65" width="370.23" height="370.23"/><rect class="cls-2" x="2273.44" y="513.13" width="313.27" height="313.27"/><rect class="cls-2" x="2301.92" y="541.61" width="256.31" height="256.31"/><rect class="cls-2" x="2330.39" y="570.09" width="199.36" height="199.36"/><rect class="cls-2" x="2358.87" y="598.57" width="142.4" height="142.4"/><rect class="cls-2" x="2387.35" y="627.05" width="85.44" height="85.44"/><rect class="cls-2" x="2415.83" y="655.53" width="28.48" height="28.48"/><rect class="cls-2" x="2216.48" y="911.84" width="199.36" height="199.36"/><rect class="cls-2" x="2244.96" y="940.32" width="142.4" height="142.4"/><rect class="cls-2" x="2273.44" y="968.8" width="85.44" height="85.44"/><rect class="cls-2" x="2301.92" y="997.28" width="28.48" height="28.48"/><rect class="cls-2" x="2444.31" y="1367.51" width="199.36" height="199.36"/><rect class="cls-2" x="2444.31" y="228.34" width="199.36" height="199.36"/><rect class="cls-2" x="1305.14" y="1367.51" width="199.36" height="199.36"/></svg>