<svg id="Layer_1" data-name="Layer 1" xmlns="http://www.w3.org/2000/svg" viewBox="0 0 2891.42 1803.09"><defs><style>.cls-1{fill:#194f8f;}.cls-2{fill:none;stroke:#7f3;stroke-opacity:0.2;}</style></defs><title>turtoil-noise3</title><rect class="cls-1" width="2891.42" height="1803.09"/><rect class="cls-2" x="749.64" y="467.11" width="427.19" height="427.19"/><rect class="cls-2" x="778.12" y="495.59" width="370.23" height="370.23"/><rect class="cls-2" x="806.6" y="524.07" width="313.27" height="313.27"/><rect class="cls-2" x="835.08" y="552.54" width="256.31" height="256.31"/><rect class="cls-2" x="863.56" y="581.02" width="199.36" height="199.36"/><rect class="cls-2" x="892.04" y="609.5" width="142.4" height="142.4"/><rect class="cls-2" x="920.52" y="637.98" width="85.44" height="85.44"/><rect class="cls-2" x="949" y="666.46" width="28.48" height="28.48"/><rect class="cls-2" x="15.92" y="10.94" width="427.19" height="427.19"/><rect class="cls-2" x="44.4" y="39.42" width="370.23" height="370.23"/><rect class="cls-2" x="72.88" y="67.9" width="313.27" height="313.27"/><rect class="cls-2" x="101.36" y="96.38" width="256.31" height="256.31"/><rect class="cls-2" x="129.84" y="124.85" width="199.36" height="199.36"/><rect class="cls-2" x="158.32" y="153.33" width="142.4" height="142.4"/><rect class="cls-2" x="186.8" y="181.81" width="85.44" height="85.44"/><rect class="cls-2" x="215.28" y="210.29" width="28.48" height="28.48"/><rect class="cls-2" x="2106.61" y="10.94" width="427.19" height="427.19"/><rect class="cls-2" x="2135.09" y="39.42" width="370.23" height="370.23"/><rect class="cls-2" x="2163.57" y="67.9" width="313.27" height="313.27"/><rect class="cls-2" x="2192.05" y="96.38" width="256.31" height="256.31"/><rect class="cls-2" x="2220.53" y="124.85" width="199.36" height="199.36"/><rect class="cls-2" x="2249.01" y="153.33" width="142.4" height="142.4"/><rect class="cls-2" x="2277.49" y="181.81" width="85.44" height="85.44"/><rect class="cls-2" x="2305.97" y="210.29" width="28.48" height="28.48"/><rect class="cls-2" x="2448.83" y="10.94" width="427.19" height="427.19"/><rect class="cls-2" x="2477.31" y="39.42" width="370.23" height="370.23"/><rect class="cls-2" x="2505.79" y="67.9" width="313.27" height="313.27"/><rect class="cls-2" x="2534.27" y="96.38" width="256.31" height="256.31"/><rect class="cls-2" x="2562.75" y="124.85" width="199.36" height="199.36"/><rect class="cls-2" x="2591.23" y="153.33" width="142.4" height="142.4"/><rect class="cls-2" x="2619.71" y="181.81" width="85.44" height="85.44"/><rect class="cls-2" x="2648.19" y="210.29" width="28.48" height="28.48"/><rect class="cls-2" x="2106.61" y="439.31" width="427.19" height="427.19"/><rect class="cls-2" x="2135.09" y="467.79" width="370.23" height="370.23"/><rect class="cls-2" x="2163.57" y="496.27" width="313.27" height="313.27"/><rect class="cls-2" x="2192.05" y="524.74" width="256.31" height="256.31"/><rect class="cls-2" x="2220.53" y="553.22" width="199.36" height="199.36"/><rect class="cls-2" x="2249.01" y="581.7" width="142.4" height="142.4"/><rect class="cls-2" x="2277.49" y="610.18" width="85.44" height="85.44"/><rect class="cls-2" x="2305.97" y="638.66" width="28.48" height="28.48"/><rect class="cls-2" x="2448.83" y="439.31" width="427.19" height="427.19"/><rect class="cls-2" x="2477.31" y="467.79" width="370.23" height="370.23"/><rect class="cls-2" x="2505.79" y="496.27" width="313.27" height="313.27"/><rect class="cls-2" x="2534.27" y="524.74" width="256.31" height="256.31"/><rect class="cls-2" x="2562.75" y="553.22" width="199.36" height="199.36"/><rect class="cls-2" x="2591.23" y="581.7" width="142.4" height="142.4"/><rect class="cls-2" x="2619.71" y="610.18" width="85.44" height="85.44"/><rect class="cls-2" x="2648.19" y="638.66" width="28.48" height="28.48"/><rect class="cls-2" x="2106.61" y="863.79" width="427.19" height="427.19"/><rect class="cls-2" x="2135.09" y="892.27" width="370.23" height="370.23"/><rect class="cls-2" x="2163.57" y="920.75" width="313.27" height="313.27"/><rect class="cls-2" x="2192.05" y="949.23" width="256.31" height="256.31"/><rect class="cls-2" x="2220.53" y="977.71" width="199.36" height="199.36"/><rect class="cls-2" x="2249.01" y="1006.19" width="142.4" height="142.4"/><rect class="cls-2" x="2277.49" y="1034.66" width="85.44" height="85.44"/><rect class="cls-2" x="2305.97" y="1063.14" width="28.48" height="28.48"/><rect class="cls-2" x="1707.15" y="1359.17" width="427.19" height="427.19"/><rect class="cls-2" x="1735.63" y="1387.65" width="370.23" height="370.23"/><rect class="cls-2" x="1764.11" y="1416.13" width="313.27" height="313.27"/><rect class="cls-2" x="1792.59" y="1444.61" width="256.31" height="256.31"/><rect class="cls-2" x="1821.07" y="1473.09" width="199.36" height="199.36"/><rect class="cls-2" x="1849.55" y="1501.57" width="142.4" height="142.4"/><rect class="cls-2" x="1878.03" y="1530.05" width="85.44" height="85.44"/><rect class="cls-2" x="1906.51" y="1558.53" width="28.48" height="28.48"/><rect class="cls-2" x="2448.83" y="863.79" width="427.19" height="427.19"/><rect class="cls-2" x="2477.31" y="892.27" width="370.23" height="370.23"/><rect class="cls-2" x="2505.79" y="920.75" width="313.27" height="313.27"/><rect class="cls-2" x="2534.27" y="949.23" width="256.31" height="256.31"/><rect class="cls-2" x="2562.75" y="977.71" width="199.36" height="199.36"/><rect class="cls-2" x="2591.23" y="1006.19" width="142.4" height="142.4"/><rect class="cls-2" x="2619.71" y="1034.66" width="85.44" height="85.44"/><rect class="cls-2" x="2648.19" y="1063.14" width="28.48" height="28.48"/><rect class="cls-2" x="1175.48" y="10.94" width="427.19" height="427.19"/><rect class="cls-2" x="1203.96" y="39.42" width="370.23" height="370.23"/><rect class="cls-2" x="1232.44" y="67.9" width="313.27" height="313.27"/><rect class="cls-2" x="1260.92" y="96.38" width="256.31" height="256.31"/><rect class="cls-2" x="1289.4" y="124.85" width="199.36" height="199.36"/><rect class="cls-2" x="1317.88" y="153.33" width="142.4" height="142.4"/><rect class="cls-2" x="1346.36" y="181.81" width="85.44" height="85.44"/><rect class="cls-2" x="1374.84" y="210.29" width="28.48" height="28.48"/><rect class="cls-2" x="444.61" y="10.94" width="427.19" height="427.19"/><rect class="cls-2" x="473.09" y="39.42" width="370.23" height="370.23"/><rect class="cls-2" x="501.57" y="67.9" width="313.27" height="313.27"/><rect class="cls-2" x="530.05" y="96.38" width="256.31" height="256.31"/><rect class="cls-2" x="558.53" y="124.85" width="199.36" height="199.36"/><rect class="cls-2" x="587.01" y="153.33" width="142.4" height="142.4"/><rect class="cls-2" x="615.49" y="181.81" width="85.44" height="85.44"/><rect class="cls-2" x="643.97" y="210.29" width="28.48" height="28.48"/><rect class="cls-2" x="15.92" y="447.06" width="427.19" height="427.19"/><rect class="cls-2" x="44.4" y="475.54" width="370.23" height="370.23"/><rect class="cls-2" x="72.88" y="504.02" width="313.27" height="313.27"/><rect class="cls-2" x="101.36" y="532.5" width="256.31" height="256.31"/><rect class="cls-2" x="129.84" y="560.98" width="199.36" height="199.36"/><rect class="cls-2" x="158.32" y="589.46" width="142.4" height="142.4"/><rect class="cls-2" x="186.8" y="617.94" width="85.44" height="85.44"/><rect class="cls-2" x="215.28" y="646.42" width="28.48" height="28.48"/><rect class="cls-2" x="879.58" y="1327.7" width="427.19" height="427.19"/><rect class="cls-2" x="908.06" y="1356.18" width="370.23" height="370.23"/><rect class="cls-2" x="936.54" y="1384.66" width="313.27" height="313.27"/><rect class="cls-2" x="965.02" y="1413.14" width="256.31" height="256.31"/><rect class="cls-2" x="993.5" y="1441.62" width="199.36" height="199.36"/><rect class="cls-2" x="1021.98" y="1470.1" width="142.4" height="142.4"/><rect class="cls-2" x="1050.46" y="1498.58" width="85.44" height="85.44"/><rect class="cls-2" x="1078.94" y="1527.06" width="28.48" height="28.48"/><rect class="cls-2" x="1318.69" y="1327.7" width="427.19" height="427.19"/><rect class="cls-2" x="1347.17" y="1356.18" width="370.23" height="370.23"/><rect class="cls-2" x="1375.65" y="1384.66" width="313.27" height="313.27"/><rect class="cls-2" x="1404.13" y="1413.14" width="256.31" height="256.31"/><rect class="cls-2" x="1432.61" y="1441.62" width="199.36" height="199.36"/><rect class="cls-2" x="1461.09" y="1470.1" width="142.4" height="142.4"/><rect class="cls-2" x="1489.56" y="1498.58" width="85.44" height="85.44"/><rect class="cls-2" x="1518.04" y="1527.06" width="28.48" height="28.48"/><rect class="cls-2" x="2102.68" y="1332.85" width="427.19" height="427.19"/><rect class="cls-2" x="2131.16" y="1361.33" width="370.23" height="370.23"/><rect class="cls-2" x="2159.64" y="1389.81" width="313.27" height="313.27"/><rect class="cls-2" x="2188.12" y="1418.29" width="256.31" height="256.31"/><rect class="cls-2" x="2216.6" y="1446.77" width="199.36" height="199.36"/><rect class="cls-2" x="2245.08" y="1475.25" width="142.4" height="142.4"/><rect class="cls-2" x="2273.56" y="1503.73" width="85.44" height="85.44"/><rect class="cls-2" x="2302.04" y="1532.21" width="28.48" height="28.48"/><rect class="cls-2" x="2449.6" y="1337.7" width="427.19" height="427.19"/><rect class="cls-2" x="2478.08" y="1366.18" width="370.23" height="370.23"/><rect class="cls-2" x="2506.56" y="1394.66" width="313.27" height="313.27"/><rect class="cls-2" x="2535.04" y="1423.14" width="256.31" height="256.31"/><rect class="cls-2" x="2563.52" y="1451.62" width="199.36" height="199.36"/><rect class="cls-2" x="2592" y="1480.1" width="142.4" height="142.4"/><rect class="cls-2" x="2620.48" y="1508.58" width="85.44" height="85.44"/><rect class="cls-2" x="2648.96" y="1537.06" width="28.48" height="28.48"/><rect class="cls-2" x="444.61" y="447.06" width="427.19" height="427.19"/><rect class="cls-2" x="473.09" y="475.54" width="370.23" height="370.23"/><rect class="cls-2" x="501.57" y="504.02" width="313.27" height="313.27"/><rect class="cls-2" x="530.05" y="532.5" width="256.31" height="256.31"/><rect class="cls-2" x="558.53" y="560.98" width="199.36" height="199.36"/><rect class="cls-2" x="587.01" y="589.46" width="142.4" height="142.4"/><rect class="cls-2" x="615.49" y="617.94" width="85.44" height="85.44"/><rect class="cls-2" x="643.97" y="646.42" width="28.48" height="28.48"/><rect class="cls-2" x="15.92" y="894.07" width="427.19" height="427.19"/><rect class="cls-2" x="44.4" y="922.55" width="370.23" height="370.23"/><rect class="cls-2" x="72.88" y="951.03" width="313.27" height="313.27"/><rect class="cls-2" x="101.36" y="979.51" width="256.31" height="256.31"/><rect class="cls-2" x="129.84" y="1007.99" width="199.36" height="199.36"/><rect class="cls-2" x="158.32" y="1036.47" width="142.4" height="142.4"/><rect class="cls-2" x="186.8" y="1064.95" width="85.44" height="85.44"/><rect class="cls-2" x="215.28" y="1093.43" width="28.48" height="28.48"/><rect class="cls-2" x="444.61" y="894.07" width="427.19" height="427.19"/><rect class="cls-2" x="473.09" y="922.55" width="370.23" height="370.23"/><rect class="cls-2" x="501.57" y="951.03" width="313.27" height="313.27"/><rect class="cls-2" x="530.05" y="979.51" width="256.31" height="256.31"/><rect class="cls-2" x="558.53" y="1007.99" width="199.36" height="199.36"/><rect class="cls-2" x="587.01" y="1036.47" width="142.4" height="142.4"/><rect class="cls-2" x="615.49" y="1064.95" width="85.44" height="85.44"/><rect class="cls-2" x="643.97" y="1093.43" width="28.48" height="28.48"/><rect class="cls-2" x="15.92" y="1330.2" width="427.19" height="427.19"/><rect class="cls-2" x="44.4" y="1358.68" width="370.23" height="370.23"/><rect class="cls-2" x="72.88" y="1387.16" width="313.27" height="313.27"/><rect class="cls-2" x="101.36" y="1415.64" width="256.31" height="256.31"/><rect class="cls-2" x="129.84" y="1444.12" width="199.36" height="199.36"/><rect class="cls-2" x="158.32" y="1472.6" width="142.4" height="142.4"/><rect class="cls-2" x="186.8" y="1501.08" width="85.44" height="85.44"/><rect class="cls-2" x="215.28" y="1529.55" width="28.48" height="28.48"/><rect class="cls-2" x="444.61" y="1330.2" width="427.19" height="427.19"/><rect class="cls-2" x="473.09" y="1358.68" width="370.23" height="370.23"/><rect class="cls-2" x="501.57" y="1387.16" width="313.27" height="313.27"/><rect class="cls-2" x="530.05" y="1415.64" width="256.31" height="256.31"/><rect class="cls-2" x="558.53" y="1444.12" width="199.36" height="199.36"/><rect class="cls-2" x="587.01" y="1472.6" width="142.4" height="142.4"/><rect class="cls-2" x="615.49" y="1501.08" width="85.44" height="85.44"/><rect class="cls-2" x="643.97" y="1529.55" width="28.48" height="28.48"/><rect class="cls-2" x="977.48" y="239.27" width="199.36" height="199.36"/><rect class="cls-2" x="1005.96" y="267.75" width="142.4" height="142.4"/><rect class="cls-2" x="1034.43" y="296.23" width="85.44" height="85.44"/><rect class="cls-2" x="1062.91" y="324.71" width="28.48" height="28.48"/><rect class="cls-2" x="1205.31" y="239.27" width="427.19" height="427.19"/><rect class="cls-2" x="1233.79" y="267.75" width="370.23" height="370.23"/><rect class="cls-2" x="1262.27" y="296.23" width="313.27" height="313.27"/><rect class="cls-2" x="1290.75" y="324.71" width="256.31" height="256.31"/><rect class="cls-2" x="1319.23" y="353.19" width="199.36" height="199.36"/><rect class="cls-2" x="1347.71" y="381.67" width="142.4" height="142.4"/><rect class="cls-2" x="1376.19" y="410.15" width="85.44" height="85.44"/><rect class="cls-2" x="1404.67" y="438.63" width="28.48" height="28.48"/><rect class="cls-2" x="1205.31" y="694.94" width="199.36" height="199.36"/><rect class="cls-2" x="1233.79" y="723.42" width="142.4" height="142.4"/><rect class="cls-2" x="1262.27" y="751.9" width="85.44" height="85.44"/><rect class="cls-2" x="1290.75" y="780.38" width="28.48" height="28.48"/><rect class="cls-2" x="1660.98" y="11.44" width="427.19" height="427.19"/><rect class="cls-2" x="1689.46" y="39.92" width="370.23" height="370.23"/><rect class="cls-2" x="1717.94" y="68.39" width="313.27" height="313.27"/><rect class="cls-2" x="1746.42" y="96.87" width="256.31" height="256.31"/><rect class="cls-2" x="1774.9" y="125.35" width="199.36" height="199.36"/><rect class="cls-2" x="1803.38" y="153.83" width="142.4" height="142.4"/><rect class="cls-2" x="1831.86" y="182.31" width="85.44" height="85.44"/><rect class="cls-2" x="1860.34" y="210.79" width="28.48" height="28.48"/><rect class="cls-2" x="1660.98" y="467.11" width="199.36" height="199.36"/><rect class="cls-2" x="1689.46" y="495.59" width="142.4" height="142.4"/><rect class="cls-2" x="1717.94" y="524.07" width="85.44" height="85.44"/><rect class="cls-2" x="1746.42" y="552.54" width="28.48" height="28.48"/><rect class="cls-2" x="977.48" y="922.78" width="427.19" height="427.19"/><rect class="cls-2" x="1005.96" y="951.26" width="370.23" height="370.23"/><rect class="cls-2" x="1034.43" y="979.74" width="313.27" height="313.27"/><rect class="cls-2" x="1062.91" y="1008.22" width="256.31" height="256.31"/><rect class="cls-2" x="1091.39" y="1036.69" width="199.36" height="199.36"/><rect class="cls-2" x="1119.87" y="1065.17" width="142.4" height="142.4"/><rect class="cls-2" x="1148.35" y="1093.65" width="85.44" height="85.44"/><rect class="cls-2" x="1176.83" y="1122.13" width="28.48" height="28.48"/><rect class="cls-2" x="2116.65" y="922.78" width="427.19" height="427.19"/><rect class="cls-2" x="1433.15" y="694.94" width="427.19" height="427.19"/><rect class="cls-2" x="1461.63" y="723.42" width="370.23" height="370.23"/><rect class="cls-2" x="1490.11" y="751.9" width="313.27" height="313.27"/><rect class="cls-2" x="1518.58" y="780.38" width="256.31" height="256.31"/><rect class="cls-2" x="1547.06" y="808.86" width="199.36" height="199.36"/><rect class="cls-2" x="1575.54" y="837.34" width="142.4" height="142.4"/><rect class="cls-2" x="1604.02" y="865.82" width="85.44" height="85.44"/><rect class="cls-2" x="1632.5" y="894.3" width="28.48" height="28.48"/><rect class="cls-2" x="1433.15" y="1150.61" width="199.36" height="199.36"/><rect class="cls-2" x="1461.63" y="1179.09" width="142.4" height="142.4"/><rect class="cls-2" x="1490.11" y="1207.57" width="85.44" height="85.44"/><rect class="cls-2" x="1518.58" y="1236.05" width="28.48" height="28.48"/><rect class="cls-2" x="1660.98" y="1150.61" width="427.19" height="427.19"/><rect class="cls-2" x="1689.46" y="1179.09" width="370.23" height="370.23"/><rect class="cls-2" x="1717.94" y="1207.57" width="313.27" height="313.27"/><rect class="cls-2" x="1746.42" y="1236.05" width="256.31" height="256.31"/><rect class="cls-2" x="1774.9" y="1264.53" width="199.36" height="199.36"/><rect class="cls-2" x="1803.38" y="1293.01" width="142.4" height="142.4"/><rect class="cls-2" x="1831.86" y="1321.49" width="85.44" height="85.44"/><rect class="cls-2" x="1860.34" y="1349.97" width="28.48" height="28.48"/><rect class="cls-2" x="1888.82" y="467.11" width="427.19" height="427.19"/><rect class="cls-2" x="1917.3" y="495.59" width="370.23" height="370.23"/><rect class="cls-2" x="1945.78" y="524.07" width="313.27" height="313.27"/><rect class="cls-2" x="1974.26" y="552.54" width="256.31" height="256.31"/><rect class="cls-2" x="2002.73" y="581.02" width="199.36" height="199.36"/><rect class="cls-2" x="2031.21" y="609.5" width="142.4" height="142.4"/><rect class="cls-2" x="2059.69" y="637.98" width="85.44" height="85.44"/><rect class="cls-2" x="2088.17" y="666.46" width="28.48" height="28.48"/><rect class="cls-2" x="1888.82" y="922.78" width="199.36" height="199.36"/><rect class="cls-2" x="1917.3" y="951.26" width="142.4" height="142.4"/><rect class="cls-2" x="1945.78" y="979.74" width="85.44" height="85.44"/><rect class="cls-2" x="1974.26" y="1008.22" width="28.48" height="28.48"/><rect class="cls-2" x="2116.65" y="1378.45" width="199.36" height="199.36"/><rect class="cls-2" x="2116.65" y="239.27" width="199.36" height="199.36"/></svg>