<?xml version="1.0" standalone="no"?>
<!DOCTYPE svg PUBLIC "-//W3C//DTD SVG 20010904//EN"
 "http://www.w3.org/TR/2001/REC-SVG-20010904/DTD/svg10.dtd">
<svg version="1.0" xmlns="http://www.w3.org/2000/svg"
 width="260.000000pt" height="260.000000pt" viewBox="0 0 260.000000 260.000000"
 preserveAspectRatio="xMidYMid meet">
<metadata>
Created by potrace 1.11, written by Peter Selinger 2001-2013
</metadata>
<g transform="translate(0.000000,260.000000) scale(0.100000,-0.100000)"
fill="#000000" stroke="none">
<path d="M1140 1835 c0 -12 -19 -15 -110 -15 -91 0 -110 -3 -110 -15 0 -12
-14 -15 -65 -15 -37 0 -65 -4 -65 -10 0 -5 -13 -10 -30 -10 -20 0 -30 -5 -30
-15 0 -8 -7 -15 -15 -15 -8 0 -15 7 -15 15 0 9 -9 15 -25 15 -16 0 -25 -6 -25
-15 0 -8 7 -15 15 -15 8 0 15 -7 15 -15 0 -10 -10 -15 -30 -15 -16 0 -30 -4
-30 -10 0 -5 -11 -10 -25 -10 -16 0 -25 -6 -25 -15 0 -10 -10 -15 -30 -15 -16
0 -30 -5 -30 -11 0 -14 -25 -39 -39 -39 -6 0 -11 -7 -11 -15 0 -8 -7 -15 -15
-15 -8 0 -15 -7 -15 -15 0 -8 -4 -15 -10 -15 -5 0 -10 -7 -10 -15 0 -8 -7 -15
-15 -15 -8 0 -15 -4 -15 -10 0 -5 -7 -10 -15 -10 -8 0 -15 -7 -15 -15 0 -8 -4
-15 -10 -15 -5 0 -10 -11 -10 -25 0 -16 -6 -25 -15 -25 -13 0 -15 -21 -15
-125 0 -104 2 -125 15 -125 9 0 15 -9 15 -25 0 -14 5 -25 10 -25 6 0 10 -11
10 -25 0 -16 6 -25 15 -25 8 0 15 -7 15 -15 0 -8 7 -15 15 -15 8 0 15 -7 15
-15 0 -8 5 -15 10 -15 6 0 10 -7 10 -15 0 -8 7 -15 15 -15 8 0 15 -4 15 -10 0
-5 7 -10 15 -10 8 0 15 -7 15 -15 0 -9 9 -15 25 -15 16 0 25 -6 25 -15 0 -8 7
-15 15 -15 8 0 15 -4 15 -10 0 -5 11 -10 25 -10 16 0 25 -6 25 -15 0 -9 -9
-15 -25 -15 -16 0 -25 6 -25 15 0 10 -10 15 -30 15 -16 0 -30 5 -30 10 0 6
-11 10 -25 10 -16 0 -25 6 -25 15 0 8 -7 15 -15 15 -8 0 -15 7 -15 15 0 9 -9
15 -25 15 -14 0 -25 5 -25 10 0 6 -7 10 -15 10 -8 0 -15 7 -15 15 0 8 -4 15
-10 15 -5 0 -10 7 -10 15 0 8 -7 15 -15 15 -8 0 -15 7 -15 15 0 8 -7 15 -15
15 -8 0 -15 5 -15 10 0 6 -7 10 -15 10 -10 0 -15 10 -15 30 0 17 -4 30 -10 30
-5 0 -10 18 -10 40 0 29 -4 40 -15 40 -12 0 -15 13 -15 55 0 42 3 55 15 55 11
0 15 11 15 40 0 22 5 40 10 40 6 0 10 11 10 25 0 16 6 25 15 25 8 0 15 7 15
15 0 8 7 15 15 15 8 0 15 5 15 10 0 6 7 10 15 10 8 0 15 7 15 15 0 8 5 15 10
15 6 0 10 7 10 15 0 8 7 15 15 15 8 0 15 7 15 15 0 8 7 15 15 15 8 0 15 5 15
10 0 6 11 10 25 10 16 0 25 6 25 15 0 9 9 15 25 15 16 0 25 6 25 15 0 10 10
15 30 15 17 0 30 5 30 10 0 6 11 10 25 10 16 0 25 6 25 15 0 11 -11 15 -40 15
-29 0 -40 -4 -40 -15 0 -9 -9 -15 -25 -15 -14 0 -25 -4 -25 -10 0 -5 -13 -10
-30 -10 -20 0 -30 -5 -30 -15 0 -9 -9 -15 -25 -15 -16 0 -25 -6 -25 -15 0 -9
-9 -15 -25 -15 -14 0 -25 -4 -25 -10 0 -5 -13 -10 -30 -10 -20 0 -30 -5 -30
-15 0 -8 -7 -15 -15 -15 -8 0 -15 -7 -15 -15 0 -8 -4 -15 -10 -15 -5 0 -10 -7
-10 -15 0 -8 -7 -15 -15 -15 -8 0 -15 -4 -15 -10 0 -5 -7 -10 -15 -10 -8 0
-15 -7 -15 -15 0 -8 -4 -15 -10 -15 -5 0 -10 -11 -10 -25 0 -16 -6 -25 -15
-25 -10 0 -15 -10 -15 -30 0 -20 -5 -30 -15 -30 -12 0 -15 -16 -15 -80 0 -64
3 -80 15 -80 9 0 15 -9 15 -25 0 -16 6 -25 15 -25 9 0 15 -10 15 -26 0 -26 20
-54 39 -54 6 0 11 -7 11 -15 0 -8 7 -15 15 -15 8 0 15 -7 15 -15 0 -8 5 -15
10 -15 6 0 10 -7 10 -15 0 -10 10 -15 30 -15 17 0 30 -4 30 -10 0 -5 7 -10 15
-10 8 0 15 -7 15 -15 0 -9 9 -15 25 -15 16 0 25 -6 25 -15 0 -9 9 -15 25 -15
14 0 25 -4 25 -10 0 -5 14 -10 30 -10 20 0 30 -5 30 -15 0 -11 11 -15 40 -15
29 0 40 -4 40 -15 0 -11 11 -15 40 -15 22 0 40 -4 40 -10 0 -5 18 -10 40 -10
22 0 40 5 40 10 0 6 7 10 15 10 8 0 15 -4 15 -10 0 -5 18 -10 40 -10 29 0 40
-4 40 -15 0 -12 13 -15 55 -15 42 0 55 -3 55 -15 0 -13 43 -15 325 -15 282 0
325 2 325 15 0 12 13 15 55 15 42 0 55 3 55 15 0 12 16 15 80 15 47 0 80 4 80
10 0 6 -7 10 -15 10 -8 0 -15 7 -15 15 0 10 10 15 30 15 20 0 30 5 30 15 0 9
9 15 25 15 14 0 25 5 25 10 0 6 11 10 25 10 16 0 25 6 25 15 0 8 7 15 15 15 8
0 15 7 15 15 0 9 10 15 26 15 26 0 54 20 54 39 0 6 7 11 15 11 8 0 15 7 15 15
0 8 7 15 15 15 9 0 15 9 15 25 0 14 5 25 10 25 6 0 10 7 10 15 0 8 7 15 15 15
11 0 15 11 15 40 0 29 4 40 15 40 12 0 15 16 15 80 0 64 -3 80 -15 80 -11 0
-15 11 -15 40 0 29 -4 40 -15 40 -9 0 -15 10 -15 26 0 26 -20 54 -39 54 -6 0
-11 7 -11 15 0 8 -7 15 -15 15 -8 0 -15 7 -15 15 0 8 -4 15 -10 15 -5 0 -10 7
-10 15 0 8 -7 15 -15 15 -8 0 -15 5 -15 10 0 6 -13 10 -30 10 -20 0 -30 5 -30
15 0 8 -4 15 -10 15 -5 0 -10 7 -10 15 0 10 -10 15 -30 15 -16 0 -30 5 -30 10
0 6 14 10 30 10 17 0 30 -4 30 -10 0 -5 11 -10 25 -10 16 0 25 -6 25 -15 0
-10 10 -15 30 -15 17 0 30 -5 30 -11 0 -19 28 -39 54 -39 16 0 26 -6 26 -15 0
-8 5 -15 10 -15 6 0 10 -7 10 -15 0 -8 7 -15 15 -15 8 0 15 -7 15 -15 0 -8 7
-15 15 -15 8 0 15 -4 15 -10 0 -5 7 -10 15 -10 10 0 15 -10 15 -30 0 -16 5
-30 10 -30 6 0 10 -11 10 -25 0 -16 6 -25 15 -25 12 0 15 -19 15 -110 0 -91
-3 -110 -15 -110 -9 0 -15 -9 -15 -25 0 -14 -4 -25 -10 -25 -5 0 -10 -11 -10
-25 0 -16 -6 -25 -15 -25 -8 0 -15 -7 -15 -15 0 -8 -7 -15 -15 -15 -8 0 -15
-7 -15 -15 0 -8 -7 -15 -15 -15 -8 0 -15 -7 -15 -15 0 -9 -9 -15 -25 -15 -14
0 -25 -4 -25 -10 0 -5 -7 -10 -15 -10 -8 0 -15 -7 -15 -15 0 -9 -9 -15 -25
-15 -16 0 -25 -6 -25 -15 0 -10 -10 -15 -30 -15 -16 0 -30 -4 -30 -10 0 -5
-11 -10 -25 -10 -16 0 -25 -6 -25 -15 0 -9 -9 -15 -25 -15 -16 0 -25 -6 -25
-15 0 -9 9 -15 25 -15 16 0 25 6 25 15 0 11 11 15 40 15 29 0 40 4 40 15 0 11
11 15 40 15 22 0 40 5 40 10 0 6 7 10 15 10 8 0 15 7 15 15 0 9 9 15 25 15 16
0 25 6 25 15 0 10 10 15 30 15 17 0 30 5 30 10 0 6 7 10 15 10 8 0 15 7 15 15
0 8 5 15 10 15 6 0 10 7 10 15 0 8 7 15 15 15 8 0 15 7 15 15 0 8 5 15 11 15
14 0 39 25 39 39 0 6 7 11 15 11 9 0 15 9 15 25 0 16 6 25 15 25 12 0 15 13
15 55 0 30 5 55 10 55 6 0 10 7 10 15 0 8 -4 15 -10 15 -5 0 -10 25 -10 55 0
42 -3 55 -15 55 -8 0 -15 5 -15 10 0 6 -7 10 -15 10 -9 0 -15 10 -15 26 0 26
-20 54 -39 54 -6 0 -11 7 -11 15 0 8 -7 15 -15 15 -8 0 -15 7 -15 15 0 9 -9
15 -25 15 -16 0 -25 6 -25 15 0 8 -7 15 -15 15 -8 0 -15 5 -15 10 0 6 -11 10
-25 10 -16 0 -25 6 -25 15 0 10 -10 15 -30 15 -20 0 -30 5 -30 15 0 9 -9 15
-25 15 -14 0 -25 5 -25 10 0 6 -18 10 -40 10 -29 0 -40 4 -40 15 0 11 -11 15
-40 15 -29 0 -40 -4 -40 -15 0 -8 -7 -15 -15 -15 -8 0 -15 7 -15 15 0 8 7 15
15 15 8 0 15 7 15 15 0 12 -16 15 -85 15 -50 0 -85 4 -85 10 0 6 -22 10 -50
10 -38 0 -50 4 -50 15 0 12 -19 15 -110 15 -91 0 -110 3 -110 15 0 13 -22 15
-135 15 -113 0 -135 -2 -135 -15z m-190 -325 c0 -5 7 -10 15 -10 8 0 15 -7 15
-15 0 -8 5 -15 10 -15 6 0 10 -33 10 -80 0 -47 -4 -80 -10 -80 -5 0 -10 -18
-10 -40 0 -22 5 -40 10 -40 6 0 10 -33 10 -80 0 -47 -4 -80 -10 -80 -5 0 -10
-7 -10 -15 0 -8 -7 -15 -15 -15 -8 0 -15 -7 -15 -15 0 -13 -22 -15 -135 -15
l-135 0 0 255 0 255 135 0 c83 0 135 -4 135 -10z m400 0 c0 -5 14 -10 30 -10
27 0 30 -3 30 -30 0 -20 5 -30 15 -30 12 0 15 -17 15 -95 0 -78 -3 -95 -15
-95 -8 0 -15 -4 -15 -10 0 -5 -7 -10 -15 -10 -8 0 -15 -7 -15 -15 0 -12 -17
-15 -95 -15 -78 0 -95 -3 -95 -15 0 -8 -7 -15 -15 -15 -12 0 -15 -16 -15 -80
l0 -80 -40 0 -40 0 0 245 c0 211 2 245 15 245 8 0 15 5 15 10 0 6 47 10 120
10 73 0 120 -4 120 -10z m460 -40 l0 -50 -65 0 -65 0 0 -205 0 -205 -40 0 -40
0 0 205 0 205 -55 0 -55 0 0 50 0 50 160 0 160 0 0 -50z m-1130 -635 c0 -8 -7
-15 -15 -15 -8 0 -15 7 -15 15 0 8 7 15 15 15 8 0 15 -7 15 -15z"/>
<path d="M760 1365 l0 -55 65 0 c51 0 65 3 65 15 0 8 7 15 15 15 11 0 15 11
15 40 l0 40 -80 0 -80 0 0 -55z"/>
<path d="M760 1160 l0 -70 65 0 c51 0 65 3 65 15 0 8 7 15 15 15 11 0 15 11
15 40 0 29 -4 40 -15 40 -8 0 -15 7 -15 15 0 12 -14 15 -65 15 l-65 0 0 -70z"/>
<path d="M1160 1350 l0 -70 85 0 c69 0 85 3 85 15 0 8 5 15 10 15 6 0 10 25
10 55 l0 55 -95 0 -95 0 0 -70z"/>
</g>
</svg>
